<svg width="120" height="102" viewBox="0 0 120 102" fill="none" xmlns="http://www.w3.org/2000/svg">
<path d="M4.19922 99.7188C4.19922 98.8398 1.89844 98.9922 1.89844 97.2969C1.89844 96.207 2.84766 95.793 3.75391 95.793C4.14063 95.793 5.19922 95.8633 5.19922 96.4297C5.19922 96.6289 5.06641 97.0273 4.75 97.0273C4.48828 97.0273 4.35156 96.75 3.75391 96.75C3.23828 96.75 3.03125 96.9609 3.03125 97.1875C3.03125 97.9102 5.32812 97.7734 5.32812 99.6055C5.32812 100.648 4.56641 101.215 3.51562 101.215C2.56641 101.215 1.76953 100.75 1.76953 100.273C1.76953 100.023 1.98437 99.6602 2.26172 99.6602C2.60156 99.6602 2.82031 100.199 3.49219 100.199C3.82812 100.199 4.19922 100.066 4.19922 99.7188Z" fill="#96C01F"/>
<path d="M10.7305 101.145C10.4844 101.145 10.2383 101.027 10.2383 100.793V96.1758C10.2383 95.9375 10.5195 95.8359 10.8047 95.8359C11.0859 95.8359 11.3711 95.9375 11.3711 96.1758V100.156H13.0234C13.2422 100.156 13.3477 100.402 13.3477 100.648C13.3477 100.895 13.2422 101.145 13.0234 101.145H10.7305Z" fill="#96C01F"/>
<path d="M18.0977 99.4727V97.5508C18.0977 96.3008 18.875 95.8359 19.875 95.8359C20.875 95.8359 21.6602 96.3008 21.6602 97.5508V99.4727C21.6602 100.723 20.875 101.188 19.875 101.188C18.875 101.188 18.0977 100.723 18.0977 99.4727ZM20.5273 97.5508C20.5273 97.0469 20.2812 96.8242 19.875 96.8242C19.4688 96.8242 19.2305 97.0469 19.2305 97.5508V99.4727C19.2305 99.9727 19.4688 100.199 19.875 100.199C20.2812 100.199 20.5273 99.9727 20.5273 99.4727V97.5508Z" fill="#96C01F"/>
<path d="M28.4609 96.8242C28.0469 96.8242 27.8086 97.0547 27.8086 97.5508V99.4727C27.8086 99.9688 28.0469 100.199 28.4531 100.199C28.8594 100.199 29.1055 99.9648 29.1055 99.4727V99.2266H28.6797C28.4609 99.2266 28.3398 99.0156 28.3398 98.7891C28.3398 98.582 28.4609 98.3555 28.6797 98.3555H29.8984C30.1172 98.3555 30.2383 98.5234 30.2383 98.7109V99.4727C30.2383 100.723 29.457 101.188 28.4531 101.188C27.4531 101.188 26.6758 100.723 26.6758 99.4727V97.5508C26.6758 96.3008 27.4687 95.8359 28.418 95.8359C29.457 95.8359 30.2383 96.3594 30.2383 97.2812C30.2383 97.7148 30.0586 97.8164 29.6719 97.8164C29.3672 97.8164 29.1133 97.7383 29.1055 97.4766C29.1016 97.2148 29.0781 96.8242 28.4609 96.8242Z" fill="#96C01F"/>
<path d="M34.8789 100.68C34.8789 100.656 34.8867 100.629 34.8945 100.598L36.2422 96.168C36.3242 95.9141 36.6484 95.793 36.9844 95.793C37.3164 95.793 37.6445 95.9141 37.7227 96.168L39.0781 100.598C39.0859 100.629 39.0938 100.656 39.0938 100.68C39.0938 100.945 38.6797 101.145 38.3672 101.145C38.1875 101.145 38.043 101.086 38 100.934L37.75 100.023H36.2227L35.9766 100.934C35.9297 101.086 35.7852 101.145 35.6055 101.145C35.293 101.145 34.8789 100.945 34.8789 100.68ZM37.5117 99.1523L36.9844 97.207L36.4531 99.1523H37.5117Z" fill="#96C01F"/>
<path d="M46.375 100.84L44.9961 98.3242V100.793C44.9961 101.027 44.7148 101.145 44.4297 101.145C44.1484 101.145 43.8633 101.027 43.8633 100.793V96.1836C43.8633 95.9453 44.1484 95.8359 44.4297 95.8359C44.8359 95.8359 44.9883 95.8711 45.2656 96.4023L46.4375 98.6445V96.1758C46.4375 95.9375 46.7227 95.8359 47.0039 95.8359C47.2891 95.8359 47.5703 95.9375 47.5703 96.1758V100.793C47.5703 101.027 47.2891 101.145 47.0039 101.145C46.7422 101.145 46.5117 101.094 46.375 100.84Z" fill="#96C01F"/>
<path d="M55.8828 96.8242C55.4688 96.8242 55.2266 97.0547 55.2266 97.5508V99.4727C55.2266 99.9688 55.4688 100.199 55.875 100.199C56.2812 100.199 56.5273 99.9648 56.5273 99.4727V99.2266H56.0977C55.8828 99.2266 55.7578 99.0156 55.7578 98.7891C55.7578 98.582 55.8828 98.3555 56.0977 98.3555H57.3164C57.5352 98.3555 57.6562 98.5234 57.6562 98.7109V99.4727C57.6562 100.723 56.875 101.188 55.875 101.188C54.8711 101.188 54.0977 100.723 54.0977 99.4727V97.5508C54.0977 96.3008 54.8867 95.8359 55.8359 95.8359C56.875 95.8359 57.6562 96.3594 57.6562 97.2812C57.6562 97.7148 57.4766 97.8164 57.0938 97.8164C56.7891 97.8164 56.5352 97.7383 56.5273 97.4766C56.5195 97.2148 56.4961 96.8242 55.8828 96.8242Z" fill="#96C01F"/>
<path d="M62.6016 99.4727V97.5508C62.6016 96.3008 63.3789 95.8359 64.3789 95.8359C65.3828 95.8359 66.1641 96.3008 66.1641 97.5508V99.4727C66.1641 100.723 65.3828 101.188 64.3789 101.188C63.3789 101.188 62.6016 100.723 62.6016 99.4727ZM65.0312 97.5508C65.0312 97.0469 64.7852 96.8242 64.3789 96.8242C63.9727 96.8242 63.7344 97.0469 63.7344 97.5508V99.4727C63.7344 99.9727 63.9727 100.199 64.3789 100.199C64.7852 100.199 65.0312 99.9727 65.0312 99.4727V97.5508Z" fill="#96C01F"/>
<path d="M72.3711 98.0508H73.4609C73.6758 98.0508 73.8008 98.2617 73.8008 98.4922C73.8008 98.6875 73.6992 98.9219 73.4609 98.9219H72.3711V100.156H74.3164C74.5352 100.156 74.6562 100.387 74.6562 100.656C74.6562 100.891 74.5547 101.145 74.3164 101.145H71.7344C71.4883 101.145 71.2422 101.027 71.2422 100.793V96.1836C71.2422 95.9531 71.4883 95.8359 71.7344 95.8359H74.3164C74.5547 95.8359 74.6562 96.0898 74.6562 96.3203C74.6562 96.5898 74.5352 96.8242 74.3164 96.8242H72.3711V98.0508Z" fill="#96C01F"/>
<path d="M81.6758 99.7188C81.6758 98.8398 79.3789 98.9922 79.3789 97.2969C79.3789 96.207 80.3281 95.793 81.2344 95.793C81.6172 95.793 82.6758 95.8633 82.6758 96.4297C82.6758 96.6289 82.5469 97.0273 82.2266 97.0273C81.9648 97.0273 81.8281 96.75 81.2344 96.75C80.7188 96.75 80.5078 96.9609 80.5078 97.1875C80.5078 97.9102 82.8086 97.7734 82.8086 99.6055C82.8086 100.648 82.0469 101.215 80.9961 101.215C80.043 101.215 79.2461 100.75 79.2461 100.273C79.2461 100.023 79.4648 99.6602 79.7383 99.6602C80.082 99.6602 80.2969 100.199 80.9727 100.199C81.3047 100.199 81.6758 100.066 81.6758 99.7188Z" fill="#96C01F"/>
<path d="M91.7422 98.8281H90.3008V100.793C90.3008 101.027 90.0156 101.145 89.7344 101.145C89.4492 101.145 89.168 101.027 89.168 100.793V96.1758C89.168 95.9375 89.4492 95.8359 89.7344 95.8359C90.0156 95.8359 90.3008 95.9375 90.3008 96.1758V97.957H91.7422V96.1758C91.7422 95.9375 92.0234 95.8359 92.3086 95.8359C92.5898 95.8359 92.875 95.9375 92.875 96.1758V100.793C92.875 101.027 92.5898 101.145 92.3086 101.145C92.0234 101.145 91.7422 101.027 91.7422 100.793V98.8281Z" fill="#96C01F"/>
<path d="M99.1406 98.0508H100.227C100.445 98.0508 100.566 98.2617 100.566 98.4922C100.566 98.6875 100.465 98.9219 100.227 98.9219H99.1406V100.156H101.082C101.301 100.156 101.422 100.387 101.422 100.656C101.422 100.891 101.32 101.145 101.082 101.145H98.5C98.2539 101.145 98.0078 101.027 98.0078 100.793V96.1836C98.0078 95.9531 98.2539 95.8359 98.5 95.8359H101.082C101.32 95.8359 101.422 96.0898 101.422 96.3203C101.422 96.5898 101.301 96.8242 101.082 96.8242H99.1406V98.0508Z" fill="#96C01F"/>
<path d="M106.27 96.1758C106.27 95.9961 106.406 95.8359 106.617 95.8359H108.117C109.109 95.8359 109.902 96.207 109.902 97.3906C109.902 98.2031 109.531 98.668 109.023 98.8633L109.91 100.469C109.938 100.512 109.945 100.563 109.945 100.598C109.945 100.883 109.566 101.188 109.234 101.188C109.09 101.188 108.953 101.129 108.871 100.977L107.879 99.043H107.398V100.793C107.398 101.027 107.117 101.145 106.832 101.145C106.551 101.145 106.27 101.027 106.27 100.793V96.1758ZM107.398 96.8242V98.1719H108.117C108.523 98.1719 108.77 98.0078 108.77 97.5C108.77 96.9883 108.523 96.8242 108.117 96.8242H107.398Z" fill="#96C01F"/>
<path d="M115.984 98.0508H117.074C117.293 98.0508 117.414 98.2617 117.414 98.4922C117.414 98.6875 117.312 98.9219 117.074 98.9219H115.984V100.156H117.93C118.148 100.156 118.27 100.387 118.27 100.656C118.27 100.891 118.168 101.145 117.93 101.145H115.348C115.102 101.145 114.855 101.027 114.855 100.793V96.1836C114.855 95.9531 115.102 95.8359 115.348 95.8359H117.93C118.168 95.8359 118.27 96.0898 118.27 96.3203C118.27 96.5898 118.148 96.8242 117.93 96.8242H115.984V98.0508Z" fill="#96C01F"/>
<path d="M0.40625 73.8164C0.40625 73.0039 1.26953 72.5977 2.13281 72.5977H10.9297C11.7656 72.5977 12.1211 73.4844 12.1211 74.2969C12.1211 75.2383 11.6914 76.0508 10.9297 76.0508H4.36328V80.3398H8.19141C8.95313 80.3398 9.38281 81.0742 9.38281 81.8867C9.38281 82.5703 9.02734 83.3828 8.19141 83.3828H4.36328V89.9336C4.36328 90.7461 3.375 91.1523 2.38672 91.1523C1.39453 91.1523 0.40625 90.7461 0.40625 89.9336V73.8164Z" fill="#F1910D"/>
<path d="M13.0859 85.3125V78.5859C13.0859 74.2227 15.7969 72.5977 19.2969 72.5977C22.793 72.5977 25.5312 74.2227 25.5312 78.5859V85.3125C25.5312 89.6797 22.793 91.3008 19.2969 91.3008C15.7969 91.3008 13.0859 89.6797 13.0859 85.3125ZM21.5781 78.5859C21.5781 76.8359 20.7148 76.0508 19.2969 76.0508C17.875 76.0508 17.0391 76.8359 17.0391 78.5859V85.3125C17.0391 87.0625 17.875 87.8516 19.2969 87.8516C20.7148 87.8516 21.5781 87.0625 21.5781 85.3125V78.5859Z" fill="#F1910D"/>
<path d="M27.8672 85.3125V78.5859C27.8672 74.2227 30.5781 72.5977 34.0781 72.5977C37.5742 72.5977 40.3125 74.2227 40.3125 78.5859V85.3125C40.3125 89.6797 37.5742 91.3008 34.0781 91.3008C30.5781 91.3008 27.8672 89.6797 27.8672 85.3125ZM36.3594 78.5859C36.3594 76.8359 35.4961 76.0508 34.0781 76.0508C32.6562 76.0508 31.8203 76.8359 31.8203 78.5859V85.3125C31.8203 87.0625 32.6562 87.8516 34.0781 87.8516C35.4961 87.8516 36.3594 87.0625 36.3594 85.3125V78.5859Z" fill="#F1910D"/>
<path d="M49.0625 72.5977C52.5586 72.5977 55.2969 74.2227 55.2969 78.5859V85.1602C55.2969 89.5273 52.5586 91.1523 49.0625 91.1523H44.5742C43.5352 91.1523 42.8477 90.5938 42.8477 89.957V73.7891C42.8477 73.1563 43.5352 72.5977 44.5742 72.5977H49.0625ZM46.8047 76.0508V87.6992H49.0625C50.4805 87.6992 51.3438 86.8867 51.3438 85.1602V78.5859C51.3438 76.8633 50.4805 76.0508 49.0625 76.0508H46.8047Z" fill="#F1910D"/>
<path d="M57.8086 73.7891C57.8086 72.9531 58.7969 72.5977 59.7852 72.5977C60.7734 72.5977 61.7617 72.9531 61.7617 73.7891V89.9336C61.7617 90.7461 60.7734 91.1523 59.7852 91.1523C58.7969 91.1523 57.8086 90.7461 57.8086 89.9336V73.7891Z" fill="#F1910D"/>
<path d="M73.2734 90.0859L68.457 81.3047V89.9336C68.457 90.7461 67.4688 91.1523 66.4766 91.1523C65.4883 91.1523 64.5 90.7461 64.5 89.9336V73.8164C64.5 72.9766 65.4883 72.5977 66.4766 72.5977C67.8984 72.5977 68.4297 72.7266 69.3945 74.5781L73.5 82.418V73.7891C73.5 72.9531 74.4883 72.5977 75.4805 72.5977C76.4687 72.5977 77.457 72.9531 77.457 73.7891V89.9336C77.457 90.7461 76.4687 91.1484 75.4805 91.1484C74.5664 91.1523 73.7539 90.9727 73.2734 90.0859Z" fill="#F1910D"/>
<path d="M80.1953 73.8164C80.1953 73.0039 81.0547 72.5977 81.918 72.5977H90.7148C91.5547 72.5977 91.9062 73.4844 91.9062 74.2969C91.9062 75.2383 91.4766 76.0508 90.7148 76.0508H84.1484V80.3398H87.9766C88.7383 80.3398 89.168 81.0742 89.168 81.8867C89.168 82.5703 88.8164 83.3828 87.9766 83.3828H84.1484V89.9336C84.1484 90.7461 83.1602 91.1523 82.1719 91.1523C81.1836 91.1523 80.1953 90.7461 80.1953 89.9336V73.8164Z" fill="#F1910D"/>
<path d="M93.25 73.7891C93.25 72.9531 94.2383 72.5977 95.2305 72.5977C96.2187 72.5977 97.207 72.9531 97.207 73.7891V89.9336C97.207 90.7461 96.2187 91.1523 95.2305 91.1523C94.2383 91.1523 93.25 90.7461 93.25 89.9336V73.7891Z" fill="#F1910D"/>
<path d="M108.715 90.0859L103.898 81.3047V89.9336C103.898 90.7461 102.91 91.1523 101.922 91.1523C100.934 91.1523 99.9453 90.7461 99.9453 89.9336V73.8164C99.9453 72.9766 100.934 72.5977 101.922 72.5977C103.34 72.5977 103.875 72.7266 104.836 74.5781L108.945 82.418V73.7891C108.945 72.9531 109.934 72.5977 110.922 72.5977C111.91 72.5977 112.902 72.9531 112.902 73.7891V89.9336C112.902 90.7461 111.91 91.1484 110.922 91.1484C110.012 91.1523 109.199 90.9727 108.715 90.0859Z" fill="#F1910D"/>
<path d="M115.637 73.7891C115.637 72.9531 116.625 72.5977 117.613 72.5977C118.605 72.5977 119.594 72.9531 119.594 73.7891V89.9336C119.594 90.7461 118.605 91.1523 117.613 91.1523C116.625 91.1523 115.637 90.7461 115.637 89.9336V73.7891Z" fill="#F1910D"/>
<path d="M103.953 9.47265C91.8945 -2.59766 72.5039 -2.96485 60 8.36719C60.3945 8.72656 60.7813 9.09375 61.1602 9.47265L65.2227 13.543C69.7031 9.60937 75.3828 7.46094 81.3945 7.46094C87.957 7.46094 94.125 10.0195 98.7656 14.6641C108.344 24.2539 108.344 39.8516 98.7656 49.4414C94.125 54.0859 87.957 56.6406 81.3945 56.6406C74.832 56.6406 68.6641 54.0859 64.0234 49.4414L51.8945 37.2969C52.457 35.75 52.5625 34.0664 52.2539 32.5234C51.7344 29.9062 36.0312 17.8906 36.0312 17.8906L35.1094 18.8164L48.1133 31.8281L46.918 33.0234L33.918 20.0078L32.5586 21.3672L45.5625 34.3828L44.375 35.5703L31.3711 22.5547L30.0664 23.8633L43.0625 36.875L41.8711 38.0703L28.8672 25.0586L27.6641 26.2617C27.6641 26.2617 39.6719 41.9805 42.2812 42.5039C43.6562 42.7734 45.1328 42.7227 46.5312 42.3086L58.8398 54.6289C65.0586 60.8555 73.2266 63.9687 81.3945 63.9687C89.5625 63.9687 97.7305 60.8555 103.949 54.6289C116.387 42.1797 116.387 21.9219 103.953 9.47265Z" fill="#F1910D"/>
<path d="M58.8398 54.6289L54.7734 50.5625C45.1367 59.0117 30.4219 58.6367 21.2344 49.4414C16.5938 44.7969 14.0391 38.6211 14.0391 32.0508C14.0391 25.4844 16.5938 19.3086 21.2344 14.6641C30.8125 5.07812 46.3984 5.07812 55.9766 14.6641L69.3711 28.0742C69.3672 28.082 69.3672 28.0898 69.3633 28.0898C68.0195 31.5664 69.3945 36.457 73.457 40.5234C77.8906 44.9609 85.1484 45.3438 88.5039 42.0469C88.5078 42.043 88.5078 42.043 88.5117 42.0391C88.5117 42.0391 88.5117 42.0391 88.5156 42.0352C91.8086 38.6758 91.4297 31.4102 86.9961 26.9727C82.9336 22.9023 78.0469 21.5234 74.5703 22.8789C74.5664 22.8789 74.5625 22.8828 74.5547 22.8828L65.2227 13.543L61.1602 9.47265C60.9688 9.28125 60.7773 9.09765 60.5859 8.91015C60.3945 8.73047 60.207 8.55469 60.0117 8.38281C47.5078 -2.96485 28.1094 -2.60156 16.0469 9.47265C3.61328 21.9219 3.61328 42.1797 16.0469 54.6289C22.2656 60.8555 30.4375 63.9688 38.6055 63.9688C46.2734 63.9688 53.9453 61.2227 60 55.7344C59.6055 55.3789 59.2187 55.0117 58.8398 54.6289ZM87 35.2188C85.4961 30.6992 81.707 26.957 77.793 26.1211L77.6562 25.9883C82.4453 25.0273 87.8203 30.0156 87 35.2188Z" fill="#96C01F"/>
</svg>
